<?xml version="1.0" encoding="UTF-8" standalone="no"?>
<!-- Created with Inkscape (http://www.inkscape.org/) -->

<svg
   width="48"
   height="48"
   viewBox="0 0 48 48"
   version="1.1"
   id="svg1"
   xmlns="http://www.w3.org/2000/svg"
   xmlns:svg="http://www.w3.org/2000/svg">
  <defs
     id="defs1" />
  <path
     d="m 26.659992,37.279958 c -4.239987,0 -7.45331,-1.159996 -9.63997,-3.479989 -2.159993,-2.319993 -3.239989,-5.453316 -3.239989,-9.399971 0,-2.826657 0.453331,-5.253316 1.359995,-7.279976 0.93333,-2.053327 2.346659,-3.626656 4.239987,-4.719985 1.893327,-1.119997 4.306653,-1.679995 7.239977,-1.679995 1.493328,0 2.853324,0.12 4.079987,0.359999 1.253328,0.213333 2.413325,0.506665 3.479989,0.879997 v 3.799988 c -1.066664,-0.426665 -2.213326,-0.746664 -3.43999,-0.959997 -1.199996,-0.24 -2.466658,-0.36 -3.799987,-0.36 -3.19999,0 -5.46665,0.853331 -6.799979,2.559992 -1.306662,1.706661 -1.959993,4.17332 -1.959993,7.399976 0,3.013324 0.719997,5.30665 2.159993,6.879979 1.439995,1.546662 3.666655,2.319992 6.679979,2.319992 1.226662,0 2.453325,-0.09333 3.679988,-0.279998 1.253328,-0.213332 2.426658,-0.533331 3.519989,-0.959997 v 3.839988 c -1.066663,0.346666 -2.226661,0.613331 -3.47999,0.799997 -1.226662,0.186666 -2.586658,0.28 -4.079986,0.28 z"
     style="font-size:10.5833px;font-family:Kanit;-inkscape-font-specification:Kanit;fill:#51a2ff;fill-opacity:1;stroke-width:0.999999"
     id="path1" />
</svg>
