<?xml version="1.0" encoding="UTF-8" standalone="no"?>
<!-- Created with Inkscape (http://www.inkscape.org/) -->

<svg
   width="195.67935"
   height="26.559916"
   viewBox="0 0 51.773494 7.027311"
   version="1.1"
   id="svg1"
   xmlns="http://www.w3.org/2000/svg"
   xmlns:svg="http://www.w3.org/2000/svg">
  <defs
     id="defs1" />
  <path
     d="m 3.4078225,7.0273109 q -1.6827447,0 -2.55057523,-0.9207471 Q 0,5.1858168 0,3.6194884 0,2.4976587 0.35983219,1.6933279 0.73024768,0.87841384 1.481662,0.44449858 2.2330762,0 3.3972392,0 3.989904,0 4.4767358,0.0952497 4.9741508,0.1799161 5.3974828,0.32808229 V 1.3334957 Q 4.9741508,1.1641629 4.4873191,1.0794965 q -0.4762485,-0.09525 -1.0054135,-0.09525 -1.269996,0 -1.799161,0.67733116 -0.5185816,0.6773312 -0.5185816,1.9579104 0,1.1959129 0.5714981,1.8203276 0.5714982,0.6138314 1.7674111,0.6138314 0.4868318,0 0.9736636,-0.074083 0.497415,-0.084666 0.9313303,-0.2539992 v 1.0159969 q -0.423332,0.1375829 -0.920747,0.211666 -0.4868318,0.074083 -1.0794966,0.074083 z M 6.5298971,6.9214779 V 0.105833 h 3.1326567 q 1.1429962,0 1.6615782,0.59266477 0.529165,0.58208143 0.529165,1.58749493 0,0.7196644 -0.359832,1.2276627 -0.359833,0.5079984 -1.037164,0.7090811 0.1905,0.1375829 0.296333,0.2963324 0.105833,0.1587495 0.211666,0.423332 l 0.857247,1.979077 h -1.18533 L 9.8001367,5.016484 Q 9.6837204,4.7413182 9.5143876,4.6249019 9.3556381,4.5084856 8.964056,4.5084856 H 7.6834768 V 6.9214779 Z M 7.6834768,3.5771552 h 1.6721613 q 0.6244149,0 0.9842469,-0.3069157 0.359832,-0.3069156 0.359832,-0.9842468 0,-1.2805793 -1.2382459,-1.2805793 H 7.6834768 Z M 12.308384,6.9214779 14.911876,0.105833 h 1.291163 l 2.582325,6.8156449 h -1.18533 L 16.922703,5.1646502 h -2.741075 l -0.677331,1.7568277 z m 2.05316,-2.6458249 h 2.37066 l -1.18533,-3.1220734 z m 8.170313,2.7516579 q -1.682744,0 -2.550575,-0.9207471 -0.857247,-0.920747 -0.857247,-2.4870754 0,-1.1218297 0.359832,-1.9261605 0.370416,-0.81491406 1.12183,-1.24882932 Q 21.357111,0 22.521274,0 q 0.592665,0 1.079497,0.0952497 0.497415,0.0846664 0.920747,0.23283259 V 1.3334957 q -0.423332,-0.1693328 -0.910164,-0.2539992 -0.476249,-0.09525 -1.005414,-0.09525 -1.269995,0 -1.79916,0.67733116 -0.518582,0.6773312 -0.518582,1.9579104 0,1.1959129 0.571498,1.8203276 0.571498,0.6138314 1.767411,0.6138314 0.486832,0 0.973664,-0.074083 0.497415,-0.084666 0.93133,-0.2539992 v 1.0159967 q -0.423332,0.1375829 -0.920747,0.211666 -0.486832,0.074083 -1.079497,0.074083 z m 5.926644,0 q -1.619245,0 -2.423576,-0.846664 -0.80433,-0.8572472 -0.80433,-2.6458249 0,-1.8626607 0.80433,-2.69874136 Q 26.839256,0 28.458501,0 q 1.629828,0 2.423576,0.83608064 0.80433,0.83608066 0.80433,2.69874136 0,1.7885777 -0.80433,2.6458249 -0.793748,0.846664 -2.423576,0.846664 z m 0,-0.9736635 q 1.068913,0 1.566328,-0.5820815 0.507999,-0.5926648 0.507999,-1.9367439 0,-1.4181621 -0.507999,-1.979077 -0.497415,-0.57149816 -1.566328,-0.57149816 -1.05833,0 -1.566328,0.57149816 -0.497415,0.5609149 -0.497415,1.979077 0,1.3440791 0.497415,1.9367439 0.507998,0.5820815 1.566328,0.5820815 z m 4.349726,0.8678305 V 0.105833 h 2.762242 q 1.513411,0 2.243659,0.80433074 0.730248,0.79374746 0.730248,2.64582486 0,1.7462445 -0.719665,2.5611585 -0.719664,0.8043308 -2.254242,0.8043308 z m 1.15358,-0.8889971 h 1.428746 q 0.666747,0 1.111246,-0.1904994 0.444499,-0.2010827 0.666748,-0.740831 0.222249,-0.5397483 0.222249,-1.5451618 0,-1.0054134 -0.201083,-1.555745 Q 36.988631,1.449912 36.544132,1.2276627 36.110217,1.0054134 35.390553,1.0054134 h -1.428746 z m 5.714985,0.8889971 V 0.105833 h 4.751902 v 0.8995804 h -3.598322 v 2.0637435 h 3.206739 V 3.958154 h -3.206739 v 2.0743268 h 3.598322 v 0.8889971 z m 5.619722,0 2.603492,-6.8156449 h 1.291162 l 2.582325,6.8156449 H 50.588164 L 49.910833,5.1646502 h -2.741075 l -0.677331,1.7568277 z m 2.05316,-2.6458249 h 2.370659 L 48.535004,1.1535796 Z"
     id="text1"
     style="font-size:10.5833px;font-family:Kanit;-inkscape-font-specification:Kanit;stroke-width:0.264583"
     aria-label="CRACODEA" />
</svg>
